<svg width="26" height="26" viewBox="0 0 26 26" fill="none" xmlns="http://www.w3.org/2000/svg">
<path d="M18.0925 25.25H7.90754C6.75574 25.2928 5.63359 24.8793 4.78491 24.0995C3.93622 23.3196 3.42957 22.2363 3.37504 21.085V15.625C3.37504 15.3929 3.46723 15.1704 3.63132 15.0063C3.79542 14.8422 4.01798 14.75 4.25004 14.75C4.48211 14.75 4.70466 14.8422 4.86876 15.0063C5.03285 15.1704 5.12504 15.3929 5.12504 15.625V21.085C5.17882 21.7723 5.5008 22.4108 6.02142 22.8627C6.54205 23.3145 7.21954 23.5435 7.90754 23.5H18.0925C18.7805 23.5435 19.458 23.3145 19.9787 22.8627C20.4993 22.4108 20.8213 21.7723 20.875 21.085V15.625C20.875 15.3929 20.9672 15.1704 21.1313 15.0063C21.2954 14.8422 21.518 14.75 21.75 14.75C21.9821 14.75 22.2047 14.8422 22.3688 15.0063C22.5329 15.1704 22.625 15.3929 22.625 15.625V21.085C22.5705 22.2363 22.0639 23.3196 21.2152 24.0995C20.3665 24.8793 19.2443 25.2928 18.0925 25.25ZM24.9963 13.6213C25.0783 13.5399 25.1434 13.4431 25.1878 13.3365C25.2322 13.2299 25.2551 13.1155 25.2551 13C25.2551 12.8845 25.2322 12.7701 25.1878 12.6635C25.1434 12.5569 25.0783 12.4601 24.9963 12.3788L13.6213 1.00376C13.5399 0.921745 13.4432 0.85665 13.3365 0.812228C13.2299 0.767805 13.1156 0.744934 13 0.744934C12.8845 0.744934 12.7702 0.767805 12.6635 0.812228C12.5569 0.85665 12.4601 0.921745 12.3788 1.00376L1.00379 12.3788C0.839024 12.5435 0.74646 12.767 0.74646 13C0.74646 13.233 0.839024 13.4565 1.00379 13.6213C1.16856 13.786 1.39203 13.8786 1.62504 13.8786C1.85805 13.8786 2.08152 13.786 2.24629 13.6213L13 2.85876L23.7538 13.6213C23.8351 13.7033 23.9319 13.7684 24.0385 13.8128C24.1452 13.8572 24.2595 13.8801 24.375 13.8801C24.4906 13.8801 24.6049 13.8572 24.7115 13.8128C24.8182 13.7684 24.9149 13.7033 24.9963 13.6213Z" fill="#5F6576"/>
</svg>
