<svg width="27" height="27" viewBox="0 0 27 27" fill="none" xmlns="http://www.w3.org/2000/svg">
<path fill-rule="evenodd" clip-rule="evenodd" d="M19.35 17.775L24.4125 22.8375C24.8625 23.2875 24.8625 23.9625 24.4125 24.4125C24.1875 24.6375 23.85 24.75 23.625 24.75C23.4 24.75 23.0625 24.6375 22.8375 24.4125L17.775 19.35C16.0875 20.5875 14.0625 21.375 11.8125 21.375C6.525 21.375 2.25 17.1 2.25 11.8125C2.25 6.525 6.525 2.25 11.8125 2.25C17.1 2.25 21.375 6.525 21.375 11.8125C21.375 14.0625 20.5875 16.2 19.35 17.775ZM11.8125 4.5C7.7625 4.5 4.5 7.7625 4.5 11.8125C4.5 15.8625 7.7625 19.125 11.8125 19.125C13.8375 19.125 15.6375 18.3375 16.9875 16.9875C18.3375 15.6375 19.125 13.8375 19.125 11.8125C19.125 7.7625 15.8625 4.5 11.8125 4.5Z" fill="black"/>
<mask id="mask0_745_3597" style="mask-type:luminance" maskUnits="userSpaceOnUse" x="2" y="2" width="23" height="23">
<path fill-rule="evenodd" clip-rule="evenodd" d="M19.35 17.775L24.4125 22.8375C24.8625 23.2875 24.8625 23.9625 24.4125 24.4125C24.1875 24.6375 23.85 24.75 23.625 24.75C23.4 24.75 23.0625 24.6375 22.8375 24.4125L17.775 19.35C16.0875 20.5875 14.0625 21.375 11.8125 21.375C6.525 21.375 2.25 17.1 2.25 11.8125C2.25 6.525 6.525 2.25 11.8125 2.25C17.1 2.25 21.375 6.525 21.375 11.8125C21.375 14.0625 20.5875 16.2 19.35 17.775ZM11.8125 4.5C7.7625 4.5 4.5 7.7625 4.5 11.8125C4.5 15.8625 7.7625 19.125 11.8125 19.125C13.8375 19.125 15.6375 18.3375 16.9875 16.9875C18.3375 15.6375 19.125 13.8375 19.125 11.8125C19.125 7.7625 15.8625 4.5 11.8125 4.5Z" fill="white"/>
</mask>
<g mask="url(#mask0_745_3597)">
<rect width="27" height="27" fill="#F0F2F5"/>
</g>
</svg>
